<svg width="136" height="22" viewBox="0 0 136 22" fill="none" xmlns="http://www.w3.org/2000/svg">
<path d="M44.708 17L44.69 10.322L41.45 15.758H39.866L36.626 10.466V17H33.35V4.4H36.284L40.712 11.672L45.032 4.4H47.966L48.002 17H44.708ZM54.462 7.082C56.082 7.082 57.318 7.454 58.17 8.198C59.022 8.93 59.448 10.058 59.448 11.582V17H56.262V15.74C55.77 16.688 54.81 17.162 53.382 17.162C52.626 17.162 51.972 17.03 51.42 16.766C50.868 16.502 50.448 16.148 50.16 15.704C49.884 15.248 49.746 14.732 49.746 14.156C49.746 13.232 50.1 12.518 50.808 12.014C51.516 11.498 52.608 11.24 54.084 11.24H56.028C55.968 10.208 55.278 9.692 53.958 9.692C53.49 9.692 53.016 9.77 52.536 9.926C52.056 10.07 51.648 10.274 51.312 10.538L50.16 8.216C50.7 7.856 51.354 7.58 52.122 7.388C52.902 7.184 53.682 7.082 54.462 7.082ZM54.336 15.002C54.732 15.002 55.08 14.906 55.38 14.714C55.68 14.522 55.896 14.24 56.028 13.868V13.022H54.552C53.556 13.022 53.058 13.352 53.058 14.012C53.058 14.312 53.172 14.552 53.4 14.732C53.628 14.912 53.94 15.002 54.336 15.002ZM61.5055 7.244H64.9075V10.862H68.4175V7.244H71.8375V17H68.4175V13.58H64.9075V17H61.5055V7.244ZM85.6822 14.264V19.016H82.5142V17H76.3762V19.016H73.1902V14.264H73.5502C74.1382 14.252 74.5462 13.934 74.7742 13.31C75.0022 12.674 75.1402 11.786 75.1882 10.646L75.3142 7.244H84.3322V14.264H85.6822ZM78.2662 10.898C78.2302 11.774 78.1642 12.476 78.0682 13.004C77.9722 13.532 77.7922 13.952 77.5282 14.264H80.9122V9.962H78.3022L78.2662 10.898ZM91.13 7.082C92.75 7.082 93.986 7.454 94.838 8.198C95.69 8.93 96.116 10.058 96.116 11.582V17H92.93V15.74C92.438 16.688 91.478 17.162 90.05 17.162C89.294 17.162 88.64 17.03 88.088 16.766C87.536 16.502 87.116 16.148 86.828 15.704C86.552 15.248 86.414 14.732 86.414 14.156C86.414 13.232 86.768 12.518 87.476 12.014C88.184 11.498 89.276 11.24 90.752 11.24H92.696C92.636 10.208 91.946 9.692 90.626 9.692C90.158 9.692 89.684 9.77 89.204 9.926C88.724 10.07 88.316 10.274 87.98 10.538L86.828 8.216C87.368 7.856 88.022 7.58 88.79 7.388C89.57 7.184 90.35 7.082 91.13 7.082ZM91.004 15.002C91.4 15.002 91.748 14.906 92.048 14.714C92.348 14.522 92.564 14.24 92.696 13.868V13.022H91.22C90.224 13.022 89.726 13.352 89.726 14.012C89.726 14.312 89.84 14.552 90.068 14.732C90.296 14.912 90.608 15.002 91.004 15.002ZM104.311 7.082C105.199 7.082 106.003 7.292 106.723 7.712C107.455 8.12 108.031 8.708 108.451 9.476C108.883 10.232 109.099 11.114 109.099 12.122C109.099 13.13 108.883 14.018 108.451 14.786C108.031 15.542 107.455 16.13 106.723 16.55C106.003 16.958 105.199 17.162 104.311 17.162C103.171 17.162 102.265 16.82 101.593 16.136V20.492H98.1735V7.244H101.431V8.216C102.067 7.46 103.027 7.082 104.311 7.082ZM103.591 14.444C104.191 14.444 104.683 14.24 105.067 13.832C105.451 13.412 105.643 12.842 105.643 12.122C105.643 11.402 105.451 10.838 105.067 10.43C104.683 10.01 104.191 9.8 103.591 9.8C102.991 9.8 102.499 10.01 102.115 10.43C101.731 10.838 101.539 11.402 101.539 12.122C101.539 12.842 101.731 13.412 102.115 13.832C102.499 14.24 102.991 14.444 103.591 14.444ZM110.742 7.244H114.144V12.356L118.23 7.244H121.38V17H117.96V11.87L113.91 17H110.742V7.244ZM123.679 7.244H127.081V10.862H130.591V7.244H134.011V17H130.591V13.58H127.081V17H123.679V7.244Z" fill="#FE9C00"/>
<rect width="22" height="22" rx="11" fill="#FE9C00"/>
</svg>
